<svg width="4766" height="2544" xmlns="http://www.w3.org/2000/svg" xmlns:xlink="http://www.w3.org/1999/xlink" overflow="hidden"><defs><clipPath id="clip0"><rect x="-131" y="-2" width="4766" height="2544"/></clipPath></defs><g clip-path="url(#clip0)" transform="translate(131 2)"><path d="M-118.5 968.334C-118.5 947.991-102.009 931.5-81.6664 931.5L627.666 931.5C648.009 931.5 664.5 947.991 664.5 968.334L664.5 1115.67C664.5 1136.01 648.009 1152.5 627.666 1152.5L-81.6664 1152.5C-102.009 1152.5-118.5 1136.01-118.5 1115.67Z" stroke="#EDEDED" stroke-width="4.58333" stroke-miterlimit="8" fill="#DBDBDB" fill-rule="evenodd"/><path d="M-118.5 1311.83C-118.5 1282.93-95.0694 1259.5-66.1662 1259.5L698.166 1259.5C727.069 1259.5 750.5 1282.93 750.5 1311.83L750.5 1521.17C750.5 1550.07 727.069 1573.5 698.166 1573.5L-66.1662 1573.5C-95.0694 1573.5-118.5 1550.07-118.5 1521.17Z" stroke="#EDEDED" stroke-width="4.58333" stroke-miterlimit="8" fill="#EC96B7" fill-rule="evenodd" fill-opacity="0.54902"/><path d="M3175.5 950.168C3175.5 919.423 3200.42 894.5 3231.17 894.5L4491.83 894.5C4522.58 894.5 4547.5 919.423 4547.5 950.168L4547.5 1172.83C4547.5 1203.58 4522.58 1228.5 4491.83 1228.5L3231.17 1228.5C3200.42 1228.5 3175.5 1203.58 3175.5 1172.83Z" stroke="#EDEDED" stroke-width="4.58333" stroke-miterlimit="8" fill="#DBDBDB" fill-rule="evenodd"/><path d="M1085.5 1091C1085.5 1032.18 1132.29 984.5 1190 984.5 1247.71 984.5 1294.5 1032.18 1294.5 1091 1294.5 1149.82 1247.71 1197.5 1190 1197.5 1132.29 1197.5 1085.5 1149.82 1085.5 1091Z" stroke="#DAE3F3" stroke-width="4.58333" stroke-miterlimit="8" fill="#B4C7E7" fill-rule="evenodd"/><path d="M1762.5 544.5C1762.5 485.406 1809.51 437.5 1867.5 437.5 1925.49 437.5 1972.5 485.406 1972.5 544.5 1972.5 603.594 1925.49 651.5 1867.5 651.5 1809.51 651.5 1762.5 603.594 1762.5 544.5Z" stroke="#DAE3F3" stroke-width="4.58333" stroke-miterlimit="8" fill="#B4C7E7" fill-rule="evenodd"/><path d="M1234.5 641C1234.5 582.182 1281.29 534.5 1339 534.5 1396.71 534.5 1443.5 582.182 1443.5 641 1443.5 699.818 1396.71 747.5 1339 747.5 1281.29 747.5 1234.5 699.818 1234.5 641Z" stroke="#DAE3F3" stroke-width="4.58333" stroke-miterlimit="8" fill="#B4C7E7" fill-rule="evenodd"/><path d="M2324.5 640.5C2324.5 581.406 2371.51 533.5 2429.5 533.5 2487.49 533.5 2534.5 581.406 2534.5 640.5 2534.5 699.595 2487.49 747.5 2429.5 747.5 2371.51 747.5 2324.5 699.595 2324.5 640.5Z" stroke="#DAE3F3" stroke-width="4.58333" stroke-miterlimit="8" fill="#B4C7E7" fill-rule="evenodd"/><path d="M1892.5 1304C1892.5 1245.18 1939.29 1197.5 1997 1197.5 2054.71 1197.5 2101.5 1245.18 2101.5 1304 2101.5 1362.82 2054.71 1410.5 1997 1410.5 1939.29 1410.5 1892.5 1362.82 1892.5 1304Z" stroke="#E2F0D9" stroke-width="4.58333" stroke-miterlimit="8" fill="#A9D18E" fill-rule="evenodd"/><path d="M1305.5 2088C1305.5 2029.18 1352.51 1981.5 1410.5 1981.5 1468.49 1981.5 1515.5 2029.18 1515.5 2088 1515.5 2146.82 1468.49 2194.5 1410.5 2194.5 1352.51 2194.5 1305.5 2146.82 1305.5 2088Z" stroke="#FFF2CC" stroke-width="4.58333" stroke-miterlimit="8" fill="#FFE699" fill-rule="evenodd"/><path d="M2019.5 1953C2019.5 1894.18 2066.29 1846.5 2124 1846.5 2181.71 1846.5 2228.5 1894.18 2228.5 1953 2228.5 2011.82 2181.71 2059.5 2124 2059.5 2066.29 2059.5 2019.5 2011.82 2019.5 1953Z" stroke="#FFF2CC" stroke-width="4.58333" stroke-miterlimit="8" fill="#FFE699" fill-rule="evenodd"/><path d="M2509.5 1620C2509.5 1561.18 2556.51 1513.5 2614.5 1513.5 2672.49 1513.5 2719.5 1561.18 2719.5 1620 2719.5 1678.82 2672.49 1726.5 2614.5 1726.5 2556.51 1726.5 2509.5 1678.82 2509.5 1620Z" stroke="#FFF2CC" stroke-width="4.58333" stroke-miterlimit="8" fill="#FFE699" fill-rule="evenodd"/><path d="M2688.5 1065C2688.5 1006.18 2735.51 958.5 2793.5 958.5 2851.49 958.5 2898.5 1006.18 2898.5 1065 2898.5 1123.82 2851.49 1171.5 2793.5 1171.5 2735.51 1171.5 2688.5 1123.82 2688.5 1065Z" stroke="#FBE5D6" stroke-width="4.58333" stroke-miterlimit="8" fill="#F8CBAD" fill-rule="evenodd"/><text font-family="Arial,Arial_MSFontService,sans-serif" font-weight="700" font-size="55" transform="matrix(1 0 0 1 3202.39 966)">The process that occurs after viral attachment by <tspan font-size="55" x="0" y="66">which a virus, or viral nucleic acid, breaches the </tspan><tspan font-size="55" x="0" y="132">plasma membrane or cell envelope and enters the </tspan><tspan font-size="55" x="0" y="198">host cell…</tspan></text><path d="M2903.5 1064.92 2940.17 1064.92 2940.17 1074.08 2903.5 1074.08ZM2967.67 1064.92 3004.33 1064.92 3004.33 1074.08 2967.67 1074.08ZM3031.83 1064.92 3068.5 1064.92 3068.5 1074.08 3031.83 1074.08ZM3096 1064.92 3132.67 1064.92 3132.67 1074.08 3096 1074.08ZM3147.81 1055.75 3175.31 1069.5 3147.81 1083.25Z"/><path d="M1.19693-4.42428 540.626 141.511 538.233 150.36-1.19693 4.42428ZM538.596 131.466 561.551 151.92 531.415 158.011Z" transform="matrix(1 0 0 -1 2117.5 1257.42)"/><text font-family="Arial,Arial_MSFontService,sans-serif" font-weight="400" font-size="55" transform="matrix(0.963927 -0.266167 0.266167 0.963927 2220.19 1175)">involved in</text><path d="M2103.53 1366.39 2490.83 1558.04 2486.76 1566.26 2099.47 1374.61ZM2490.79 1547.79 2509.33 1572.31 2478.59 1572.44Z"/><text font-family="Arial,Arial_MSFontService,sans-serif" font-weight="400" font-size="55" transform="matrix(0.883171 0.469052 -0.469052 0.883171 2266.6 1399)">enables</text><path d="M2.50759-3.83653 280.012 177.543 274.996 185.216-2.50759 3.83653ZM281.19 167.362 296.687 193.917 266.145 190.381Z" transform="matrix(1 0 0 -1 2239.5 1890.42)"/><text font-family="Arial,Arial_MSFontService,sans-serif" font-weight="400" font-size="55" transform="matrix(0.841406 -0.540404 0.540404 0.841406 2313.13 1792)">Is a</text><path d="M2017 1438.64 2085.76 1798.57 2076.75 1800.29 2008 1440.36ZM2093.9 1792.35 2085.56 1821.94 2066.89 1797.51Z"/><text font-family="Arial,Arial_MSFontService,sans-serif" font-weight="400" font-size="55" transform="matrix(0.225769 0.974181 -0.974181 0.225769 2071.86 1527)">enables</text><path d="M3.67971-2.73252 403.854 536.158 396.495 541.623-3.67971 2.73252ZM408.481 527.013 413.837 557.289 386.403 543.408Z" transform="matrix(-1 0 0 1 1911.34 1423.5)"/><text font-family="Arial,Arial_MSFontService,sans-serif" font-weight="400" font-size="55" transform="matrix(0.60261 -0.798035 0.798035 0.60261 1592.15 1760)">enables</text><path d="M0.0160028-4.58331 36.6824-4.45528 36.6504 4.71133-0.0160028 4.58331ZM64.1823-4.35927 100.849-4.23124 100.817 4.93537 64.1503 4.80734ZM128.349-4.13523 165.015-4.0072 164.983 5.15941 128.317 5.03138ZM192.515-3.91119 229.181-3.78316 229.149 5.38345 192.483 5.25542ZM256.681-3.68715 293.348-3.55912 293.316 5.60749 256.649 5.47946ZM320.847-3.46311 357.514-3.33508 357.482 5.83153 320.815 5.7035ZM385.014-3.23907 421.68-3.11104 421.648 6.05557 384.982 5.92754ZM449.18-3.01503 485.846-2.88701 485.814 6.27961 449.148 6.15158ZM513.346-2.79099 550.013-2.66297 549.981 6.50365 513.314 6.37562ZM577.512-2.56695 614.179-2.43893 614.147 6.72768 577.48 6.59966ZM641.679-2.34291 678.345-2.21489 678.313 6.95173 641.647 6.8237ZM705.845-2.11887 742.511-1.99085 742.479 7.17576 705.813 7.04774ZM770.011-1.89483 806.678-1.76681 806.646 7.3998 769.979 7.27178ZM834.177-1.67079 870.844-1.54277 870.812 7.62384 834.146 7.49582ZM898.344-1.44675 935.01-1.31873 934.978 7.84788 898.312 7.71986ZM962.51-1.22271 999.177-1.09469 999.145 8.07192 962.478 7.9439ZM1026.68-0.998672 1063.34-0.870649 1063.31 8.29596 1026.64 8.16794ZM1061.57-10.0436 1089.02 3.80236 1061.47 17.4563Z" transform="matrix(-1 0 0 1 1858.52 1319.5)"/><text fill="#FF0000" font-family="Arial,Arial_MSFontService,sans-serif" font-weight="700" font-size="64" transform="matrix(1 0 0 1 -92.0001 1355)">SQCVNLTTRTQLPPAYTN<tspan font-size="64" x="0" y="77">SFTRGVYYPDKVFRSSVL</tspan><tspan font-size="64" x="0" y="154">HSTQDLFLPFFSNVTWF</tspan></text><path d="M1863.11 1265.76 1341.41 1123.93 1343.82 1115.09 1865.52 1256.91ZM1343.43 1133.98 1320.5 1113.5 1350.64 1107.45Z"/><text font-family="Arial,Arial_MSFontService,sans-serif" font-weight="400" font-size="55" transform="matrix(0.960911 0.276858 -0.276858 0.960911 1536.52 1115)">located in</text><text fill="#222222" font-family="Arial,Arial_MSFontService,sans-serif" font-weight="700" font-size="64" transform="matrix(1 0 0 1 -76.716 1019)">The lipid bilayer <tspan font-size="64" x="0" y="77">surrounding a virion</tspan></text><path d="M4.37739e-06-4.58333 36.6667-4.5833 36.6667 4.58337-4.37739e-06 4.58333ZM64.1667-4.58327 100.833-4.58324 100.833 4.58343 64.1667 4.58339ZM128.333-4.58321 165-4.58318 165 4.58349 128.333 4.58346ZM192.5-4.58315 229.167-4.58311 229.167 4.58355 192.5 4.58352ZM256.667-4.58309 293.333-4.58305 293.333 4.58361 256.667 4.58358ZM320.833-4.58303 354.954-4.58299 354.954 4.58367 320.833 4.58364ZM350.371-13.7497 377.871 0.000360892 350.371 13.7503Z" transform="matrix(-1 0 0 1 1055.37 1060.5)"/><path d="M1914.44 1213.01 1435.31 774.355 1441.5 767.594 1920.63 1206.24ZM1432.5 784.211 1421.5 755.5 1451.07 763.928Z"/><text font-family="Arial,Arial_MSFontService,sans-serif" font-weight="400" font-size="55" transform="matrix(0.724579 0.689192 -0.689192 0.724579 1618.08 852)">located in</text><path d="M5.5424e-06-4.58333 36.6667-4.58329 36.6667 4.58338-5.5424e-06 4.58333ZM64.1667-4.58326 100.833-4.58321 100.833 4.58346 64.1667 4.58341ZM128.333-4.58318 165-4.58313 165 4.58353 128.333 4.58349ZM192.5-4.5831 229.167-4.58306 229.167 4.58361 192.5 4.58357ZM256.667-4.58302 275.526-4.583 275.526 4.58367 256.667 4.58364ZM270.943-13.7497 298.443 0.000360892 270.943 13.7503Z" transform="matrix(-1 0 0 1 1200.94 634.5)"/><path d="M-120.5 579.334C-120.5 558.991-104.009 542.5-83.6659 542.5L865.666 542.5C886.009 542.5 902.5 558.991 902.5 579.334L902.5 726.666C902.5 747.009 886.009 763.5 865.666 763.5L-83.6659 763.5C-104.009 763.5-120.5 747.009-120.5 726.666Z" stroke="#EDEDED" stroke-width="4.58333" stroke-miterlimit="8" fill="#DBDBDB" fill-rule="evenodd"/><text font-family="Arial,Arial_MSFontService,sans-serif" font-weight="700" font-size="64" transform="matrix(1 0 0 1 -78.6453 630)">The lipid bilayer surrounding an <tspan font-size="64" x="0" y="77">endocytic vesicle.</tspan></text><path d="M1852.92 422.851 1852.92 386.184 1862.08 386.184 1862.08 422.851ZM1852.92 358.684 1852.92 322.017 1862.08 322.017 1862.08 358.684ZM1852.92 294.517 1852.92 258.417 1862.08 258.417 1862.08 294.517ZM1843.75 263 1857.5 235.5 1871.25 263Z"/><path d="M1265.5 37.3328C1265.5 16.9905 1281.99 0.499836 1302.33 0.499836L3418.67 0.499836C3439.01 0.499836 3455.5 16.9905 3455.5 37.3328L3455.5 184.667C3455.5 205.009 3439.01 221.5 3418.67 221.5L1302.33 221.5C1281.99 221.5 1265.5 205.009 1265.5 184.667Z" stroke="#EDEDED" stroke-width="4.58333" stroke-miterlimit="8" fill="#DBDBDB" fill-rule="evenodd"/><text font-family="Arial,Arial_MSFontService,sans-serif" font-weight="700" font-size="64" transform="matrix(1 0 0 1 1303.59 80)">A complex system of membrane<tspan font-size="64" x="981.979" y="0">-</tspan><tspan font-size="64" x="1003.18" y="0">bounded compartments located </tspan><tspan font-size="64" x="0" y="77">between endoplasmic reticulum (ER) and the Golgi complex…</tspan></text><path d="M1975.66 1167.73 1889.94 678.864 1898.97 677.28 1984.69 1166.14ZM1881.71 684.961 1890.5 655.5 1908.79 680.212Z"/><text font-family="Arial,Arial_MSFontService,sans-serif" font-weight="400" font-size="55" transform="matrix(0.166499 0.986042 -0.986042 0.166499 1977.79 792)">located in</text><path d="M5.66371e-06-4.58333 36.6667-4.58329 36.6667 4.58338-5.66371e-06 4.58333ZM64.1667-4.58325 100.833-4.58321 100.833 4.58346 64.1667 4.58341ZM128.333-4.58317 165-4.58313 165 4.58354 128.333 4.58349ZM192.5-4.5831 229.167-4.58305 229.167 4.58362 192.5 4.58357ZM256.667-4.58302 293.333-4.58297 293.333 4.5837 256.667 4.58365ZM320.833-4.58294 357.5-4.58289 357.5 4.58378 320.833 4.58373ZM385-4.58286 421.667-4.58281 421.667 4.58385 385 4.58381ZM449.167-4.58278 485.833-4.58273 485.833 4.58393 449.167 4.58389ZM513.333-4.5827 550-4.58265 550 4.58401 513.333 4.58397ZM556.602-13.7493 584.102 0.000721785 556.602 13.7507Z" transform="matrix(1 0 0 -1 2566.5 634.501)"/><path d="M1.19693-4.42428 540.626 141.511 538.233 150.36-1.19693 4.42428ZM538.596 131.466 561.551 151.92 531.415 158.011Z" transform="matrix(0.800115 -0.599847 -0.599847 -0.800115 2049.35 1202.22)"/><text font-family="Arial,Arial_MSFontService,sans-serif" font-weight="400" font-size="55" transform="matrix(0.611593 -0.791172 0.791172 0.611593 2090.72 1065)">located in</text><path d="M3174.5 603.334C3174.5 582.991 3190.99 566.5 3211.33 566.5L4509.67 566.5C4530.01 566.5 4546.5 582.991 4546.5 603.334L4546.5 750.666C4546.5 771.009 4530.01 787.5 4509.67 787.5L3211.33 787.5C3190.99 787.5 3174.5 771.009 3174.5 750.666Z" stroke="#EDEDED" stroke-width="4.58333" stroke-miterlimit="8" fill="#DBDBDB" fill-rule="evenodd"/><text font-family="Arial,Arial_MSFontService,sans-serif" font-weight="700" font-size="64" transform="matrix(1 0 0 1 3199.04 652)">The volume enclosed by the membranes of <tspan font-size="64" x="0" y="77">the endoplasmic reticulum.</tspan></text><path d="M1.93811-4.15339 35.1652 11.3515 31.289 19.6583-1.93811 4.15339ZM60.0856 22.9802 93.3127 38.4851 89.4365 46.7918 56.2094 31.2869ZM118.233 50.1137 151.46 65.6186 147.584 73.9254 114.357 58.4205ZM176.381 77.2473 209.608 92.7522 205.732 101.059 172.504 85.5541ZM234.528 104.381 267.755 119.886 263.879 128.192 230.652 112.688ZM292.676 131.514 325.903 147.019 322.027 155.326 288.799 139.821ZM350.823 158.648 384.05 174.153 380.174 182.46 346.947 166.955ZM408.971 185.781 442.198 201.286 438.322 209.593 405.094 194.088ZM467.118 212.915 500.345 228.42 496.469 236.727 463.242 221.222ZM525.266 240.049 558.493 255.553 554.616 263.86 521.389 248.355ZM583.413 267.182 616.64 282.687 612.764 290.994 579.537 275.489ZM641.561 294.316 674.788 309.821 670.911 318.127 637.684 302.623ZM699.708 321.449 732.935 336.954 729.059 345.261 695.832 329.756ZM757.856 348.583 791.083 364.088 787.206 372.395 753.979 356.89ZM816.003 375.716 834.044 384.135 830.168 392.442 812.127 384.023ZM833.768 373.891 852.874 397.979 822.14 398.811Z" transform="matrix(-1 0 0 1 1873.37 1386.5)"/><path d="M-108.5 1838.67C-108.5 1810.41-85.5914 1787.5-57.3321 1787.5L960.332 1787.5C988.591 1787.5 1011.5 1810.41 1011.5 1838.67L1011.5 2043.33C1011.5 2071.59 988.591 2094.5 960.332 2094.5L-57.3321 2094.5C-85.5914 2094.5-108.5 2071.59-108.5 2043.33Z" stroke="#EDEDED" stroke-width="4.58333" stroke-miterlimit="8" fill="#DBDBDB" fill-rule="evenodd"/><text font-family="Arial,Arial_MSFontService,sans-serif" font-weight="700" font-size="55" transform="matrix(1 0 0 1 -66.7395 1866)">attaches the virion to the cell <tspan font-size="55" x="0" y="66">membrane by interacting with host </tspan><tspan font-size="55" x="0" y="132">receptor, initiating the infection…</tspan></text><path d="M2688.5 1370.5C2688.5 1311.41 2735.51 1263.5 2793.5 1263.5 2851.49 1263.5 2898.5 1311.41 2898.5 1370.5 2898.5 1429.59 2851.49 1477.5 2793.5 1477.5 2735.51 1477.5 2688.5 1429.59 2688.5 1370.5Z" stroke="#E2F0D9" stroke-width="4.58333" stroke-miterlimit="8" fill="#A9D18E" fill-rule="evenodd"/><path d="M0.0448768-4.58311 36.7098-4.2241 36.62 4.94213-0.0448768 4.58311ZM64.2085-3.95484 100.873-3.59582 100.784 5.5704 64.1187 5.21139ZM128.372-3.32656 165.037-2.96755 164.947 6.19868 128.282 5.83967ZM192.536-2.69829 227.755-2.35343 227.665 6.8128 192.446 6.46794ZM223.261-11.5645 250.625 2.45407 222.992 15.9341Z" transform="matrix(1 0 0 -1 2915.5 1393.95)"/><path d="M853.5 2273.67C853.5 2249.27 873.275 2229.5 897.668 2229.5L2209.33 2229.5C2233.73 2229.5 2253.5 2249.27 2253.5 2273.67L2253.5 2450.33C2253.5 2474.73 2233.73 2494.5 2209.33 2494.5L897.668 2494.5C873.275 2494.5 853.5 2474.73 853.5 2450.33Z" stroke="#EDEDED" stroke-width="4.58333" stroke-miterlimit="8" fill="#DBDBDB" fill-rule="evenodd"/><text font-family="Arial,Arial_MSFontService,sans-serif" font-weight="700" font-size="55" transform="matrix(1 0 0 1 924.641 2309)">Essential counter<tspan font-size="55" x="458.333" y="0">-</tspan><tspan font-size="55" x="476.667" y="0">regulatory carboxypeptidase of </tspan><tspan font-size="55" x="0" y="66">the renin</tspan><tspan font-size="55" x="232.604" y="66">-</tspan><tspan font-size="55" x="250.938" y="66">angiotensin hormone system that is a </tspan><tspan font-size="55" x="0" y="132">critical regulator of blood volume…</tspan></text><path d="M3783.5 2427.5C3783.5 2393.81 3810.36 2366.5 3843.5 2366.5 3876.64 2366.5 3903.5 2393.81 3903.5 2427.5 3903.5 2461.19 3876.64 2488.5 3843.5 2488.5 3810.36 2488.5 3783.5 2461.19 3783.5 2427.5Z" stroke="#E2F0D9" stroke-width="4.58333" stroke-miterlimit="8" fill="#A9D18E" fill-rule="evenodd"/><path d="M3784.5 2289C3784.5 2255.03 3811.36 2227.5 3844.5 2227.5 3877.64 2227.5 3904.5 2255.03 3904.5 2289 3904.5 2322.97 3877.64 2350.5 3844.5 2350.5 3811.36 2350.5 3784.5 2322.97 3784.5 2289Z" stroke="#FBE5D6" stroke-width="4.58333" stroke-miterlimit="8" fill="#F8CBAD" fill-rule="evenodd"/><path d="M3783.5 1983.5C3783.5 1949.81 3810.36 1922.5 3843.5 1922.5 3876.64 1922.5 3903.5 1949.81 3903.5 1983.5 3903.5 2017.19 3876.64 2044.5 3843.5 2044.5 3810.36 2044.5 3783.5 2017.19 3783.5 1983.5Z" stroke="#FFF2CC" stroke-width="4.58333" stroke-miterlimit="8" fill="#FFE699" fill-rule="evenodd"/><path d="M3783.5 2140.5C3783.5 2106.81 3810.36 2079.5 3843.5 2079.5 3876.64 2079.5 3903.5 2106.81 3903.5 2140.5 3903.5 2174.19 3876.64 2201.5 3843.5 2201.5 3810.36 2201.5 3783.5 2174.19 3783.5 2140.5Z" stroke="#DAE3F3" stroke-width="4.58333" stroke-miterlimit="8" fill="#B4C7E7" fill-rule="evenodd"/><text font-family="Arial,Arial_MSFontService,sans-serif" font-weight="700" font-size="64" transform="matrix(1 0 0 1 3936.14 2001)">Function<tspan fill="#FF0000" font-size="64" x="-0.470459" y="441">Protein</tspan></text><path d="M3935.67 2449.08 3990.92 2449.08 4046.17 2449.08 4101.42 2449.08 4156.67 2449.08 4156.67 2456.08 4101.42 2456.08 4046.17 2456.08 3990.92 2456.08 3935.67 2456.08Z" fill="#FF0000" fill-rule="evenodd"/><text font-family="Arial,Arial_MSFontService,sans-serif" font-weight="700" font-size="64" transform="matrix(1 0 0 1 3935.67 2305)">Process<tspan font-size="64" x="0" y="-148">Component</tspan></text><path d="M3742 1909.83C3742 1893.36 3755.36 1880 3771.83 1880L4347.17 1880C4363.64 1880 4377 1893.36 4377 1909.83L4377 2508.17C4377 2524.64 4363.64 2538 4347.17 2538L3771.83 2538C3755.36 2538 3742 2524.64 3742 2508.17Z" stroke="#000000" stroke-width="8.02083" stroke-miterlimit="8" stroke-dasharray="32.0833 24.0625" fill="none" fill-rule="evenodd"/><path d="M2269.5 1955.83C2269.5 1929.69 2290.69 1908.5 2316.83 1908.5L3406.17 1908.5C3432.31 1908.5 3453.5 1929.69 3453.5 1955.83L3453.5 2145.17C3453.5 2171.31 3432.31 2192.5 3406.17 2192.5L2316.83 2192.5C2290.69 2192.5 2269.5 2171.31 2269.5 2145.17Z" stroke="#EDEDED" stroke-width="4.58333" stroke-miterlimit="8" fill="#DBDBDB" fill-rule="evenodd"/><text font-family="Arial,Arial_MSFontService,sans-serif" font-weight="700" font-size="55" transform="matrix(1 0 0 1 2312 1987)">renin<tspan font-size="55" x="134.636" y="0">-</tspan><tspan font-size="55" x="152.969" y="0">angiotensin hormone system that is </tspan><tspan font-size="55" x="0" y="66">a critical regulator of,</tspan><tspan font-size="55" x="575.208" y="66">initiating the </tspan><tspan font-size="55" x="0" y="132">infection…</tspan></text><path d="M3189.5 1381.67C3189.5 1352.86 3212.86 1329.5 3241.67 1329.5L4007.33 1329.5C4036.14 1329.5 4059.5 1352.86 4059.5 1381.67L4059.5 1590.33C4059.5 1619.14 4036.14 1642.5 4007.33 1642.5L3241.67 1642.5C3212.86 1642.5 3189.5 1619.14 3189.5 1590.33Z" stroke="#EDEDED" stroke-width="4.58333" stroke-miterlimit="8" fill="#EC96B7" fill-rule="evenodd" fill-opacity="0.54902"/><text fill="#FF0000" font-family="Arial,Arial_MSFontService,sans-serif" font-weight="700" font-size="64" transform="matrix(1 0 0 1 3216.88 1424)">PDKVFRSSVLHSTQDLFLP<tspan font-size="64" x="0" y="77">FFSNVTW</tspan><tspan font-size="64" x="309.948" y="77">SQCVNLTTRTQ</tspan><tspan font-size="64" x="0" y="154">LPPAYTNSFTRGVYYF</tspan></text></g></svg>