<svg class="svg-icon" style="width: 1.0546875em; height: 1em;vertical-align: middle;fill: currentColor;overflow: hidden;" viewBox="0 0 1080 1024" version="1.1" xmlns="http://www.w3.org/2000/svg"><path d="M292.423025 799.927009a354.718954 354.718954 0 1 0 501.639601-501.657111 354.718954 354.718954 0 1 0-501.639601 501.657111Z" fill="#E9EAEB" /><path d="M476.528105 441.72549L269.05098 649.202614l183.383007 190.075817 92.360784-92.360784c21.416993-21.416993 64.25098 10.708497 95.037909-18.739869l30.786928-30.786928 30.786928-30.786928L476.528105 441.72549z" fill="#FFFFFF" /><path d="M452.433987 859.356863L250.311111 649.202614l226.216994-226.216993 243.6183 243.618301-72.282353 72.282353c-21.416993 21.416993-46.849673 17.401307-65.589542 16.062745-14.724183-1.338562-24.094118-2.677124-29.448366 2.677124l-100.392157 101.730719zM287.79085 649.202614l164.643137 171.335948 82.99085-82.99085c14.724183-14.724183 33.464052-12.047059 50.865359-10.708496 20.078431 2.677124 33.464052 2.677124 44.172549-8.031373l52.203922-52.203921-206.138562-206.138563-188.737255 188.737255z" fill="#2A5082" /><path d="M416.29281 273.066667c14.724183-41.495425 4.015686-89.68366-29.448366-123.147713-37.479739-37.479739-92.360784-45.511111-136.533333-24.094117l70.943791 70.94379-56.219608 56.219608-70.943791-70.943791c-21.416993 44.172549-13.385621 100.392157 24.094118 136.533334 33.464052 33.464052 81.652288 42.833987 123.147712 29.448366l437.709804 437.709804c21.416993 21.416993 54.881046 21.416993 76.298039 0 21.416993-21.416993 21.416993-54.881046 0-76.29804L416.29281 273.066667z" fill="#A3D4FF" /><path d="M815.184314 815.184314c-17.401307 0-34.802614-6.69281-46.849673-20.078432L335.979085 364.088889c-46.849673 12.047059-95.037908 0-129.840523-34.802614-40.156863-40.156863-50.865359-101.730719-25.43268-152.596079l8.031373-17.401307 74.959477 74.959477 37.479739-37.479739-74.959478-74.959477 17.401308-8.031372c50.865359-24.094118 112.439216-13.385621 152.596078 25.43268 33.464052 33.464052 46.849673 82.99085 34.802614 129.840522l432.355556 432.355556c25.43268 26.771242 25.43268 68.266667 0 95.037908-13.385621 12.047059-29.448366 18.739869-48.188235 18.73987z m-471.173856-481.882353L787.07451 776.366013c14.724183 14.724183 41.495425 14.724183 56.219608 0 16.062745-16.062745 16.062745-41.495425 0-56.219608L400.230065 277.082353l2.677125-8.031373c13.385621-38.818301 2.677124-80.313725-25.43268-109.762091-26.771242-26.771242-66.928105-37.479739-103.069281-28.109804l65.589542 65.589542-76.298039 76.29804-65.589542-65.589543c-9.369935 36.141176 0 76.298039 28.109803 103.069281 29.448366 29.448366 70.943791 38.818301 109.762092 25.43268l8.031373-2.677124z" fill="#2A5082" /><path d="M614.4 338.656209l-28.109804-28.109804c-10.708497-10.708497-26.771242-10.708497-37.479738 0l-56.219608 56.219608 65.589542 65.589543 56.219608-56.219608c9.369935-10.708497 9.369935-26.771242 0-37.479739z" fill="#FFFFFF" /><path d="M566.211765 443.064052l-18.73987-18.739869 56.219608-56.219608c5.354248-5.354248 5.354248-13.385621 0-18.739869L575.581699 319.91634c-5.354248-5.354248-13.385621-5.354248-18.739869 0l-56.219608 56.219608-18.739869-18.73987 56.219608-56.219607c16.062745-16.062745 41.495425-16.062745 56.219608 0l28.109804 28.109804c16.062745 16.062745 16.062745 41.495425 0 56.219607l-56.219608 57.55817z" fill="#2A5082" /><path d="M698.729412 385.505882l-28.109804-28.109804c-10.708497-10.708497-26.771242-10.708497-37.479739 0l-76.298039 76.29804 65.589543 65.589542 76.298039-76.298039c10.708497-9.369935 10.708497-26.771242 0-37.479739z" fill="#FFFFFF" /><path d="M633.139869 508.653595l-18.739869-18.73987 76.298039-76.298039c5.354248-5.354248 5.354248-13.385621 0-18.739869l-28.109804-28.109804c-5.354248-5.354248-13.385621-5.354248-18.739869 0l-76.298039 76.298039-18.739869-18.739869 76.298039-76.298039c14.724183-14.724183 41.495425-14.724183 56.219608 0l28.109803 28.109804c16.062745 16.062745 16.062745 41.495425 0 56.219608L633.139869 508.653595z" fill="#2A5082" /><path d="M766.996078 488.575163c9.369935-9.369935 9.369935-25.43268-1.338562-36.141176l-28.109804-28.109804c-10.708497-10.708497-26.771242-10.708497-36.141176-1.338562l-78.975163 78.975163c-9.369935 9.369935-9.369935 25.43268 1.338562 36.141177l28.109804 28.109804c10.708497 10.708497 26.771242 10.708497 36.141176 1.338562l78.975163-78.975164z" fill="#FFFFFF" /><path d="M671.95817 587.628758c-10.708497 0-21.416993-4.015686-29.448366-12.047059l-28.109804-28.109804c-16.062745-16.062745-16.062745-40.156863-1.338562-54.881045l78.975163-78.975164c6.69281-6.69281 17.401307-10.708497 28.109804-10.708496s20.078431 5.354248 26.771242 12.047058l28.109804 28.109804c16.062745 16.062745 16.062745 40.156863 1.338562 54.881046l-78.975163 78.975163c-6.69281 6.69281-16.062745 10.708497-25.43268 10.708497zM717.469281 428.339869c-2.677124 0-5.354248 1.338562-8.031373 2.677124l-78.975163 78.975164c-4.015686 4.015686-4.015686 12.047059 1.338562 17.401307l28.109804 28.109804c5.354248 5.354248 13.385621 5.354248 17.401307 1.338562l78.975164-78.975163c4.015686-4.015686 4.015686-12.047059-1.338562-17.401308l-28.109804-28.109803c-2.677124-1.338562-5.354248-2.677124-9.369935-4.015687z" fill="#2A5082" /><path d="M532.747712 352.04183c-16.062745-16.062745-33.464052-25.43268-58.896732-21.416993-25.43268 4.015686-68.266667 8.031373-82.990849 18.739869-14.724183 10.708497-28.109804 64.25098-28.109804 104.407843 0 49.526797-1.338562 97.715033-12.047059 108.423529l-87.006536 87.006536L489.913725 629.124183c53.542484-53.542484 45.511111-144.564706 1.338563-187.398693l60.235294 60.235294c42.833987 42.833987 107.084967 12.047059 117.793464-14.724183-13.385621-12.047059-136.533333-135.194771-136.533334-135.194771z" fill="#FFFFFF" /><path d="M273.066667 659.911111L254.326797 641.171242l87.006536-87.006536c2.677124-4.015686 8.031373-22.755556 8.031373-99.053595 0-38.818301 12.047059-100.392157 33.464052-116.454902 13.385621-10.708497 41.495425-14.724183 74.959477-20.078431 4.015686 0 9.369935-1.338562 13.385621-1.338562 34.802614-5.354248 56.219608 10.708497 70.943791 25.432679l141.887582 141.887582-2.677124 8.031373c-8.031373 20.078431-32.12549 37.479739-58.896732 42.833987-30.786928 6.69281-58.896732-1.338562-80.313726-22.755556l-4.015686-4.015686c8.031373 45.511111-2.677124 95.037908-38.818301 131.179085l-18.739869-18.73987c48.188235-48.188235 40.156863-129.840523 1.338562-168.658823l18.739869-18.739869 60.235294 60.235294c18.739869 18.739869 40.156863 18.739869 56.219608 16.062745 16.062745-4.015686 28.109804-12.047059 36.141177-20.078432L523.377778 361.411765c-16.062745-16.062745-29.448366-20.078431-48.188236-17.401307-4.015686 0-8.031373 1.338562-13.38562 1.338562-21.416993 2.677124-53.542484 8.031373-62.912419 14.724183-8.031373 6.69281-21.416993 52.203922-21.416993 93.699346 0 84.329412-6.69281 108.423529-16.062745 117.793464l-88.345098 88.345098z" fill="#2A5082" /><path d="M805.814379 564.873203c9.369935-9.369935 9.369935-22.755556 0-32.125491L781.720261 508.653595c-9.369935-9.369935-22.755556-9.369935-32.12549 0l-72.282353 72.282353c-9.369935 9.369935-9.369935 22.755556 0 32.12549l24.094118 24.094118c9.369935 9.369935 22.755556 9.369935 32.12549 0l72.282353-72.282353z" fill="#FFFFFF" /><path d="M718.807843 657.233987c-9.369935 0-18.739869-4.015686-25.43268-10.708497L669.281046 622.431373c-14.724183-14.724183-14.724183-37.479739 0-50.86536l72.282353-72.282353c13.385621-14.724183 37.479739-13.385621 50.865359 0l24.094118 24.094118c14.724183 14.724183 14.724183 37.479739 0 50.865359l-72.282353 72.282353c-6.69281 6.69281-16.062745 10.708497-25.43268 10.708497z m46.849673-141.887582c-2.677124 0-5.354248 1.338562-6.69281 2.677124L686.682353 588.96732c-4.015686 4.015686-4.015686 9.369935 0 13.385621l24.094118 24.094118c1.338562 1.338562 4.015686 2.677124 6.69281 2.677124s5.354248-1.338562 6.692811-2.677124l72.282352-72.282353c4.015686-4.015686 4.015686-9.369935 0-13.385621l-24.094117-24.094118c-1.338562-1.338562-4.015686-1.338562-6.692811-1.338562z" fill="#2A5082" /><path d="M275.636706 584.202039l240.486065 240.338824-85.15932 85.212862L190.477386 669.414902z" fill="#E9EAEB" /><path d="M431.016993 928.962092L171.335948 669.281046l104.407843-104.407843L535.424837 824.554248l-104.407844 104.407844zM208.815686 669.281046l222.201307 222.201307 66.928105-66.928105L275.743791 602.352941l-66.928105 66.928105z" fill="#2A5082" /><path d="M782.135216 733.799739l18.940653-18.927268 26.50353 26.503529-18.940654 18.940654zM259.225935 666.001569l18.927268-18.927268 39.755294 39.755294-18.927268 18.927268z" fill="#2A5082" /></svg>